<svg width="256" height="256" viewBox="0 0 256 256" fill="none" xmlns="http://www.w3.org/2000/svg">
  <g>
    <g transform="translate(16 32)">
      <path d="M212 0L12 0C5.37168 0 0 5.37168 0 12L0 36C0 42.6283 5.37168 48 12 48L212 48C218.628 48 224 42.6283 224 36L224 12C224 5.37168 218.628 0 212 0L212 0Z" fill="#1F1600" fill-rule="evenodd" transform="translate(0 10)" />
      <path d="M0 4C0 1.33333 1.33333 0 4 0L204 0C206.667 0 208 1.33333 208 4L208 28C208 30.6667 206.667 32 204 32L4 32C1.33333 32 0 30.6667 0 28L0 4L0 4Z" fill="#FFCA38" fill-rule="evenodd" transform="translate(8 18)" />
      <path d="M70.1743 0L11.8984 0C8.61277 0 5.80829 1.16166 3.48497 3.48497C1.16166 5.80829 0 8.61277 0 11.8984L0 164.102C0 167.387 1.16166 170.192 3.48497 172.515C5.80829 174.838 8.61277 176 11.8984 176L212.102 176C215.387 176 218.192 174.838 220.515 172.515C222.838 170.192 224 167.387 224 164.102L224 43.8984C224 40.6128 222.838 37.8083 220.515 35.485C218.192 33.1617 215.387 32 212.102 32L98.4106 32C97.672 32 96.9884 31.8058 96.3601 31.4175C95.7317 31.0291 95.2524 30.5046 94.922 29.8439L84.3943 8.78846C83.0478 6.09539 81.0939 3.95738 78.5327 2.37443C75.9714 0.791475 73.1853 0 70.1743 0L70.1743 0Z" fill="#1F1600" fill-rule="evenodd" />
      <path d="M0 3.89844C0 1.29948 1.29948 0 3.89844 0L62.1743 0C65.4287 0 67.7835 1.45539 69.2389 4.36616L79.7666 25.4216C81.9594 29.8072 85.5074 32 90.4106 32L204.102 32C206.701 32 208 33.2995 208 35.8984L208 156.102C208 158.701 206.701 160 204.102 160L3.89844 160C1.29948 160 0 158.701 0 156.102L0 3.89844L0 3.89844Z" fill="#FFCA38" fill-rule="evenodd" transform="translate(8 8)" />
    </g>
  </g>
</svg>